<mxfile host="app.diagrams.net" modified="2023-05-07T14:09:35.567Z" agent="Mozilla/5.0 (Windows NT 10.0; Win64; x64) AppleWebKit/537.36 (KHTML, like Gecko) Chrome/111.0.0.0 Safari/537.36 OPR/97.0.0.0" etag="g3tCaRqBnO7rsTaMjvf-" version="21.2.9" type="device">
  <diagram name="PÃ¡gina-1" id="k2aV3mfpag6Ss8hprGoy">
    <mxGraphModel dx="1393" dy="797" grid="1" gridSize="10" guides="1" tooltips="1" connect="1" arrows="1" fold="1" page="1" pageScale="1" pageWidth="850" pageHeight="1100" math="0" shadow="0">
      <root>
        <mxCell id="0" />
        <mxCell id="1" parent="0" />
        <mxCell id="Pa6JtWTiXnyP-uvEOS40-1" value="Actor" style="shape=umlActor;verticalLabelPosition=bottom;verticalAlign=top;html=1;outlineConnect=0;" vertex="1" parent="1">
          <mxGeometry x="40" y="60" width="30" height="60" as="geometry" />
        </mxCell>
        <mxCell id="Pa6JtWTiXnyP-uvEOS40-2" value="" style="rounded=0;whiteSpace=wrap;html=1;rotation=90;" vertex="1" parent="1">
          <mxGeometry x="-135" y="340" width="380" height="20" as="geometry" />
        </mxCell>
        <mxCell id="Pa6JtWTiXnyP-uvEOS40-3" value="Interfaz" style="shape=umlBoundary;whiteSpace=wrap;html=1;" vertex="1" parent="1">
          <mxGeometry x="160" y="60" width="80" height="70" as="geometry" />
        </mxCell>
        <mxCell id="Pa6JtWTiXnyP-uvEOS40-4" value="" style="rounded=0;whiteSpace=wrap;html=1;rotation=90;" vertex="1" parent="1">
          <mxGeometry x="10" y="340" width="380" height="20" as="geometry" />
        </mxCell>
        <mxCell id="Pa6JtWTiXnyP-uvEOS40-5" value="Control viajero" style="ellipse;shape=umlControl;whiteSpace=wrap;html=1;" vertex="1" parent="1">
          <mxGeometry x="330" y="50" width="70" height="80" as="geometry" />
        </mxCell>
        <mxCell id="Pa6JtWTiXnyP-uvEOS40-6" value="viajero" style="ellipse;shape=umlEntity;whiteSpace=wrap;html=1;" vertex="1" parent="1">
          <mxGeometry x="480" y="55" width="70" height="75" as="geometry" />
        </mxCell>
        <mxCell id="Pa6JtWTiXnyP-uvEOS40-8" value="Control acumular&lt;br&gt;millas" style="ellipse;shape=umlControl;whiteSpace=wrap;html=1;" vertex="1" parent="1">
          <mxGeometry x="610" y="50" width="70" height="80" as="geometry" />
        </mxCell>
        <mxCell id="Pa6JtWTiXnyP-uvEOS40-153" value="acumular&lt;br&gt;millas" style="ellipse;shape=umlEntity;whiteSpace=wrap;html=1;" vertex="1" parent="1">
          <mxGeometry x="750" y="55" width="70" height="75" as="geometry" />
        </mxCell>
        <mxCell id="Pa6JtWTiXnyP-uvEOS40-154" value="" style="rounded=0;whiteSpace=wrap;html=1;rotation=90;" vertex="1" parent="1">
          <mxGeometry x="170" y="340" width="380" height="20" as="geometry" />
        </mxCell>
        <mxCell id="Pa6JtWTiXnyP-uvEOS40-155" value="" style="rounded=0;whiteSpace=wrap;html=1;rotation=90;" vertex="1" parent="1">
          <mxGeometry x="325" y="340" width="380" height="20" as="geometry" />
        </mxCell>
        <mxCell id="Pa6JtWTiXnyP-uvEOS40-156" value="" style="rounded=0;whiteSpace=wrap;html=1;rotation=90;" vertex="1" parent="1">
          <mxGeometry x="455" y="340" width="380" height="20" as="geometry" />
        </mxCell>
        <mxCell id="Pa6JtWTiXnyP-uvEOS40-157" value="" style="rounded=0;whiteSpace=wrap;html=1;rotation=90;" vertex="1" parent="1">
          <mxGeometry x="595" y="340" width="380" height="20" as="geometry" />
        </mxCell>
        <mxCell id="Pa6JtWTiXnyP-uvEOS40-158" value="" style="endArrow=classic;html=1;rounded=0;entryX=0.104;entryY=1.067;entryDx=0;entryDy=0;entryPerimeter=0;exitX=0.108;exitY=-0.045;exitDx=0;exitDy=0;exitPerimeter=0;" edge="1" parent="1" source="Pa6JtWTiXnyP-uvEOS40-2" target="Pa6JtWTiXnyP-uvEOS40-4">
          <mxGeometry width="50" height="50" relative="1" as="geometry">
            <mxPoint x="60" y="210" as="sourcePoint" />
            <mxPoint x="110" y="160" as="targetPoint" />
          </mxGeometry>
        </mxCell>
        <mxCell id="Pa6JtWTiXnyP-uvEOS40-159" value="Opcion a(acumular millas)" style="text;html=1;strokeColor=none;fillColor=none;align=center;verticalAlign=middle;whiteSpace=wrap;rounded=0;" vertex="1" parent="1">
          <mxGeometry x="70" y="170" width="110" height="30" as="geometry" />
        </mxCell>
        <mxCell id="Pa6JtWTiXnyP-uvEOS40-160" value="" style="endArrow=classic;html=1;rounded=0;exitX=0.319;exitY=-0.01;exitDx=0;exitDy=0;exitPerimeter=0;entryX=0.315;entryY=0.944;entryDx=0;entryDy=0;entryPerimeter=0;" edge="1" parent="1" source="Pa6JtWTiXnyP-uvEOS40-2" target="Pa6JtWTiXnyP-uvEOS40-4">
          <mxGeometry width="50" height="50" relative="1" as="geometry">
            <mxPoint x="70" y="300" as="sourcePoint" />
            <mxPoint x="120" y="250" as="targetPoint" />
          </mxGeometry>
        </mxCell>
        <mxCell id="Pa6JtWTiXnyP-uvEOS40-161" value="numero viaj,cant millas" style="html=1;verticalAlign=bottom;endArrow=open;dashed=1;endSize=8;edgeStyle=elbowEdgeStyle;elbow=vertical;curved=0;rounded=0;exitX=0.217;exitY=1.102;exitDx=0;exitDy=0;exitPerimeter=0;entryX=0.217;entryY=0.059;entryDx=0;entryDy=0;entryPerimeter=0;" edge="1" parent="1" source="Pa6JtWTiXnyP-uvEOS40-4" target="Pa6JtWTiXnyP-uvEOS40-2">
          <mxGeometry relative="1" as="geometry">
            <mxPoint x="160" y="240" as="sourcePoint" />
            <mxPoint x="80" y="240" as="targetPoint" />
          </mxGeometry>
        </mxCell>
        <mxCell id="Pa6JtWTiXnyP-uvEOS40-162" value="Ingresa viajero y millas" style="text;html=1;strokeColor=none;fillColor=none;align=center;verticalAlign=middle;whiteSpace=wrap;rounded=0;" vertex="1" parent="1">
          <mxGeometry x="65" y="250" width="120" height="30" as="geometry" />
        </mxCell>
        <mxCell id="Pa6JtWTiXnyP-uvEOS40-166" value="" style="endArrow=classic;html=1;rounded=0;exitX=0.385;exitY=0.015;exitDx=0;exitDy=0;exitPerimeter=0;entryX=0.383;entryY=0.981;entryDx=0;entryDy=0;entryPerimeter=0;" edge="1" parent="1" source="Pa6JtWTiXnyP-uvEOS40-4" target="Pa6JtWTiXnyP-uvEOS40-154">
          <mxGeometry width="50" height="50" relative="1" as="geometry">
            <mxPoint x="290" y="350" as="sourcePoint" />
            <mxPoint x="340" y="300" as="targetPoint" />
          </mxGeometry>
        </mxCell>
        <mxCell id="Pa6JtWTiXnyP-uvEOS40-167" value="Verifica existencia viajero ingresado" style="text;html=1;strokeColor=none;fillColor=none;align=center;verticalAlign=middle;whiteSpace=wrap;rounded=0;" vertex="1" parent="1">
          <mxGeometry x="390" y="290" width="100" height="30" as="geometry" />
        </mxCell>
        <mxCell id="Pa6JtWTiXnyP-uvEOS40-168" value="Busca viajero&lt;br&gt;" style="text;html=1;strokeColor=none;fillColor=none;align=center;verticalAlign=middle;whiteSpace=wrap;rounded=0;" vertex="1" parent="1">
          <mxGeometry x="240" y="280" width="80" height="30" as="geometry" />
        </mxCell>
        <mxCell id="Pa6JtWTiXnyP-uvEOS40-169" value="" style="endArrow=classic;html=1;rounded=0;exitX=0.422;exitY=0.015;exitDx=0;exitDy=0;exitPerimeter=0;entryX=0.421;entryY=1.003;entryDx=0;entryDy=0;entryPerimeter=0;" edge="1" parent="1" source="Pa6JtWTiXnyP-uvEOS40-154" target="Pa6JtWTiXnyP-uvEOS40-155">
          <mxGeometry width="50" height="50" relative="1" as="geometry">
            <mxPoint x="405" y="350" as="sourcePoint" />
            <mxPoint x="455" y="300" as="targetPoint" />
          </mxGeometry>
        </mxCell>
        <mxCell id="Pa6JtWTiXnyP-uvEOS40-170" value="" style="endArrow=classic;html=1;rounded=0;exitX=0.491;exitY=-0.014;exitDx=0;exitDy=0;exitPerimeter=0;entryX=0.488;entryY=1.028;entryDx=0;entryDy=0;entryPerimeter=0;" edge="1" parent="1" source="Pa6JtWTiXnyP-uvEOS40-155" target="Pa6JtWTiXnyP-uvEOS40-156">
          <mxGeometry width="50" height="50" relative="1" as="geometry">
            <mxPoint x="550" y="375" as="sourcePoint" />
            <mxPoint x="600" y="325" as="targetPoint" />
          </mxGeometry>
        </mxCell>
        <mxCell id="Pa6JtWTiXnyP-uvEOS40-171" value="Acumular millas al viajero" style="text;html=1;strokeColor=none;fillColor=none;align=center;verticalAlign=middle;whiteSpace=wrap;rounded=0;" vertex="1" parent="1">
          <mxGeometry x="530" y="310" width="110" height="40" as="geometry" />
        </mxCell>
        <mxCell id="Pa6JtWTiXnyP-uvEOS40-172" value="" style="endArrow=classic;html=1;rounded=0;exitX=0.591;exitY=-0.006;exitDx=0;exitDy=0;exitPerimeter=0;entryX=0.587;entryY=0.96;entryDx=0;entryDy=0;entryPerimeter=0;" edge="1" parent="1" source="Pa6JtWTiXnyP-uvEOS40-156" target="Pa6JtWTiXnyP-uvEOS40-157">
          <mxGeometry width="50" height="50" relative="1" as="geometry">
            <mxPoint x="690" y="410" as="sourcePoint" />
            <mxPoint x="740" y="360" as="targetPoint" />
          </mxGeometry>
        </mxCell>
        <mxCell id="Pa6JtWTiXnyP-uvEOS40-173" value="&lt;font style=&quot;font-size: 9px;&quot;&gt;suma millas anteriores con valor ingresado&lt;/font&gt;" style="text;html=1;strokeColor=none;fillColor=none;align=center;verticalAlign=middle;whiteSpace=wrap;rounded=0;" vertex="1" parent="1">
          <mxGeometry x="660" y="350" width="120" height="30" as="geometry" />
        </mxCell>
        <mxCell id="Pa6JtWTiXnyP-uvEOS40-174" value="" style="html=1;verticalAlign=bottom;endArrow=open;dashed=1;endSize=8;edgeStyle=elbowEdgeStyle;elbow=vertical;curved=0;rounded=0;entryX=0.685;entryY=-0.03;entryDx=0;entryDy=0;entryPerimeter=0;exitX=0.684;exitY=0.97;exitDx=0;exitDy=0;exitPerimeter=0;" edge="1" parent="1" source="Pa6JtWTiXnyP-uvEOS40-157" target="Pa6JtWTiXnyP-uvEOS40-156">
          <mxGeometry relative="1" as="geometry">
            <mxPoint x="760" y="420" as="sourcePoint" />
            <mxPoint x="680" y="420" as="targetPoint" />
          </mxGeometry>
        </mxCell>
        <mxCell id="Pa6JtWTiXnyP-uvEOS40-175" value="&lt;font style=&quot;font-size: 8px;&quot;&gt;nuevo valor de millas acum&lt;/font&gt;" style="text;html=1;strokeColor=none;fillColor=none;align=center;verticalAlign=middle;whiteSpace=wrap;rounded=0;" vertex="1" parent="1">
          <mxGeometry x="685" y="370" width="70" height="70" as="geometry" />
        </mxCell>
        <mxCell id="Pa6JtWTiXnyP-uvEOS40-176" value="" style="html=1;verticalAlign=bottom;endArrow=open;dashed=1;endSize=8;edgeStyle=elbowEdgeStyle;elbow=vertical;curved=0;rounded=0;exitX=0.765;exitY=1.006;exitDx=0;exitDy=0;exitPerimeter=0;entryX=0.767;entryY=0.012;entryDx=0;entryDy=0;entryPerimeter=0;" edge="1" parent="1" source="Pa6JtWTiXnyP-uvEOS40-155" target="Pa6JtWTiXnyP-uvEOS40-154">
          <mxGeometry relative="1" as="geometry">
            <mxPoint x="470" y="450" as="sourcePoint" />
            <mxPoint x="390" y="450" as="targetPoint" />
          </mxGeometry>
        </mxCell>
        <mxCell id="Pa6JtWTiXnyP-uvEOS40-177" value="" style="html=1;verticalAlign=bottom;endArrow=open;dashed=1;endSize=8;edgeStyle=elbowEdgeStyle;elbow=vertical;curved=0;rounded=0;exitX=0.736;exitY=0.97;exitDx=0;exitDy=0;exitPerimeter=0;entryX=0.738;entryY=-0.067;entryDx=0;entryDy=0;entryPerimeter=0;" edge="1" parent="1" source="Pa6JtWTiXnyP-uvEOS40-156" target="Pa6JtWTiXnyP-uvEOS40-155">
          <mxGeometry relative="1" as="geometry">
            <mxPoint x="630" y="440" as="sourcePoint" />
            <mxPoint x="550" y="440" as="targetPoint" />
          </mxGeometry>
        </mxCell>
        <mxCell id="Pa6JtWTiXnyP-uvEOS40-178" value="millas acum" style="text;html=1;strokeColor=none;fillColor=none;align=center;verticalAlign=middle;whiteSpace=wrap;rounded=0;" vertex="1" parent="1">
          <mxGeometry x="540" y="410" width="80" height="30" as="geometry" />
        </mxCell>
        <mxCell id="Pa6JtWTiXnyP-uvEOS40-179" value="viajero,millas acum" style="text;html=1;strokeColor=none;fillColor=none;align=center;verticalAlign=middle;whiteSpace=wrap;rounded=0;" vertex="1" parent="1">
          <mxGeometry x="380" y="420" width="110" height="30" as="geometry" />
        </mxCell>
        <mxCell id="Pa6JtWTiXnyP-uvEOS40-180" value="viajero,acum" style="html=1;verticalAlign=bottom;endArrow=open;dashed=1;endSize=8;edgeStyle=elbowEdgeStyle;elbow=vertical;curved=0;rounded=0;exitX=0.809;exitY=0.988;exitDx=0;exitDy=0;exitPerimeter=0;entryX=0.811;entryY=0.037;entryDx=0;entryDy=0;entryPerimeter=0;" edge="1" parent="1" source="Pa6JtWTiXnyP-uvEOS40-154" target="Pa6JtWTiXnyP-uvEOS40-4">
          <mxGeometry relative="1" as="geometry">
            <mxPoint x="320" y="470.22" as="sourcePoint" />
            <mxPoint x="240" y="470.22" as="targetPoint" />
          </mxGeometry>
        </mxCell>
        <mxCell id="Pa6JtWTiXnyP-uvEOS40-181" value="muestra datos" style="html=1;verticalAlign=bottom;endArrow=open;dashed=1;endSize=8;edgeStyle=elbowEdgeStyle;elbow=vertical;curved=0;rounded=0;exitX=0.865;exitY=1.012;exitDx=0;exitDy=0;exitPerimeter=0;entryX=0.865;entryY=0.006;entryDx=0;entryDy=0;entryPerimeter=0;" edge="1" parent="1" source="Pa6JtWTiXnyP-uvEOS40-4" target="Pa6JtWTiXnyP-uvEOS40-2">
          <mxGeometry relative="1" as="geometry">
            <mxPoint x="170" y="490.22" as="sourcePoint" />
            <mxPoint x="90" y="490.22" as="targetPoint" />
          </mxGeometry>
        </mxCell>
        <mxCell id="Pa6JtWTiXnyP-uvEOS40-182" value="viajero no encontrado" style="html=1;verticalAlign=bottom;endArrow=open;dashed=1;endSize=8;edgeStyle=elbowEdgeStyle;elbow=vertical;curved=0;rounded=0;exitX=0.897;exitY=0.964;exitDx=0;exitDy=0;exitPerimeter=0;entryX=0.901;entryY=0;entryDx=0;entryDy=0;entryPerimeter=0;" edge="1" parent="1" source="Pa6JtWTiXnyP-uvEOS40-155" target="Pa6JtWTiXnyP-uvEOS40-154">
          <mxGeometry relative="1" as="geometry">
            <mxPoint x="480" y="500" as="sourcePoint" />
            <mxPoint x="400" y="500" as="targetPoint" />
          </mxGeometry>
        </mxCell>
        <mxCell id="Pa6JtWTiXnyP-uvEOS40-183" value="viajero no encontrado" style="html=1;verticalAlign=bottom;endArrow=open;dashed=1;endSize=8;edgeStyle=elbowEdgeStyle;elbow=vertical;curved=0;rounded=0;exitX=0.947;exitY=1.014;exitDx=0;exitDy=0;exitPerimeter=0;entryX=0.948;entryY=-0.071;entryDx=0;entryDy=0;entryPerimeter=0;" edge="1" parent="1" source="Pa6JtWTiXnyP-uvEOS40-154" target="Pa6JtWTiXnyP-uvEOS40-4">
          <mxGeometry relative="1" as="geometry">
            <mxPoint x="320" y="520" as="sourcePoint" />
            <mxPoint x="240" y="520" as="targetPoint" />
          </mxGeometry>
        </mxCell>
        <mxCell id="Pa6JtWTiXnyP-uvEOS40-184" value="alt" style="shape=umlFrame;whiteSpace=wrap;html=1;pointerEvents=0;" vertex="1" parent="1">
          <mxGeometry x="200" y="250" width="610" height="300" as="geometry" />
        </mxCell>
        <mxCell id="Pa6JtWTiXnyP-uvEOS40-185" value="Si no encuentra viajero:" style="text;html=1;strokeColor=none;fillColor=none;align=center;verticalAlign=middle;whiteSpace=wrap;rounded=0;" vertex="1" parent="1">
          <mxGeometry x="210" y="470" width="140" height="30" as="geometry" />
        </mxCell>
        <mxCell id="Pa6JtWTiXnyP-uvEOS40-186" value="Si encuentra viajero:" style="text;html=1;strokeColor=none;fillColor=none;align=center;verticalAlign=middle;whiteSpace=wrap;rounded=0;" vertex="1" parent="1">
          <mxGeometry x="250" y="245" width="140" height="40" as="geometry" />
        </mxCell>
        <mxCell id="Pa6JtWTiXnyP-uvEOS40-187" value="" style="endArrow=none;dashed=1;html=1;dashPattern=1 3;strokeWidth=2;rounded=0;exitX=0;exitY=0.76;exitDx=0;exitDy=0;entryX=1;entryY=0.749;entryDx=0;entryDy=0;entryPerimeter=0;exitPerimeter=0;" edge="1" parent="1" source="Pa6JtWTiXnyP-uvEOS40-184" target="Pa6JtWTiXnyP-uvEOS40-184">
          <mxGeometry width="50" height="50" relative="1" as="geometry">
            <mxPoint x="330" y="520" as="sourcePoint" />
            <mxPoint x="380" y="470" as="targetPoint" />
          </mxGeometry>
        </mxCell>
      </root>
    </mxGraphModel>
  </diagram>
</mxfile>
